<svg width="60" height="60" viewBox="0 0 60 60" fill="none" xmlns="http://www.w3.org/2000/svg">
<path d="M49.9896 8.8385H42.1005C35.9596 8.8385 30.9636 13.8345 30.9636 19.9754V26.6336H24.7206C24.0738 26.6336 23.5487 27.1582 23.5487 27.8055V36.8216C23.5487 37.4689 24.0738 37.9935 24.7206 37.9935H30.9636V57.6562H3.51562C2.86926 57.6562 2.34375 57.1307 2.34375 56.4844V3.51562C2.34375 2.86926 2.86926 2.34375 3.51562 2.34375H5.85938C6.50665 2.34375 7.03125 1.81915 7.03125 1.17188C7.03125 0.524597 6.50665 0 5.85938 0H3.51562C1.577 0 0 1.577 0 3.51562V56.4844C0 58.423 1.577 60 3.51562 60H32.1355C32.7827 60 33.3073 59.4754 33.3073 58.8281V36.8216C33.3073 36.1743 32.7827 35.6497 32.1355 35.6497H25.8929V28.9769H32.1355C32.7827 28.9769 33.3073 28.4523 33.3073 27.805V19.9754C33.3073 15.1268 37.2519 11.1818 42.101 11.1818H48.8182V17.8542H42.101C40.9511 17.8542 39.9797 18.8255 39.9797 19.9754V27.805C39.9797 28.4523 40.5043 28.9769 41.1516 28.9769H48.6539L47.7759 35.6497H41.1516C40.5048 35.6497 39.9797 36.1743 39.9797 36.8216V58.8281C39.9797 59.4754 40.5048 60 41.1516 60H44.7656C45.4129 60 45.9375 59.4754 45.9375 58.8281C45.9375 58.1808 45.4129 57.6562 44.7656 57.6562H42.3235V37.9935H48.8036C49.3918 37.9935 49.8889 37.5572 49.9654 36.9745L51.1519 27.9579C51.1958 27.6237 51.0938 27.2864 50.8713 27.0328C50.6488 26.7787 50.3275 26.6336 49.9901 26.6336H42.3239V20.1984H49.9901C50.6374 20.1984 51.162 19.6738 51.162 19.0265V10.0104C51.1615 9.3631 50.6369 8.8385 49.9896 8.8385Z" fill="#D8E4B5"/>
<path d="M56.4844 0H15.2344C14.5871 0 14.0625 0.524597 14.0625 1.17188C14.0625 1.81915 14.5871 2.34375 15.2344 2.34375H56.4844C57.1307 2.34375 57.6562 2.86926 57.6562 3.51562V56.4844C57.6562 57.1307 57.1307 57.6562 56.4844 57.6562H54.1406C53.4933 57.6562 52.9688 58.1808 52.9688 58.8281C52.9688 59.4754 53.4933 60 54.1406 60H56.4844C58.423 60 60 58.423 60 56.4844V3.51562C60 1.577 58.423 0 56.4844 0Z" fill="#D8E4B5"/>
<path d="M49.4536 57.6562H49.4527C48.8054 57.6562 48.2812 58.1808 48.2812 58.8281C48.2812 59.4754 48.8063 60 49.4536 60C50.1009 60 50.6255 59.4754 50.6255 58.8281C50.6255 58.1808 50.1009 57.6562 49.4536 57.6562Z" fill="#D8E4B5"/>
<path d="M10.5473 2.34375C11.1946 2.34375 11.7192 1.81915 11.7192 1.17188C11.7192 0.524597 11.1946 0 10.5473 0H10.5464C9.89914 0 9.375 0.524597 9.375 1.17188C9.375 1.81915 9.90005 2.34375 10.5473 2.34375Z" fill="#D8E4B5"/>
</svg>
