<svg width="60" height="60" viewBox="0 0 60 60" fill="none" xmlns="http://www.w3.org/2000/svg">
<path d="M49.7272 0H10.2728C4.6084 0 0 4.6084 0 10.2728V49.7272C0 55.3916 4.6084 60 10.2728 60H49.7272C55.3916 60 60 55.3916 60 49.7272V10.2728C60 4.6084 55.3916 0 49.7272 0ZM58.2422 49.7272C58.2422 54.4223 54.4223 58.2422 49.7272 58.2422H10.2728C5.57766 58.2422 1.75781 54.4223 1.75781 49.7272V10.2728C1.75781 5.57766 5.57766 1.75781 10.2728 1.75781H49.7272C54.4223 1.75781 58.2422 5.57766 58.2422 10.2728V49.7272Z" fill="#D8E4B5"/>
<path d="M30.0001 13.1515C20.7098 13.1515 13.1516 20.7097 13.1516 30C13.1516 39.2903 20.7098 46.8485 30.0001 46.8485C39.2903 46.8485 46.8486 39.2903 46.8486 30C46.8486 20.7097 39.2903 13.1515 30.0001 13.1515ZM30.0001 45.0907C21.6791 45.0907 14.9094 38.321 14.9094 30C14.9094 21.679 21.6791 14.9093 30.0001 14.9093C38.3211 14.9093 45.0908 21.679 45.0908 30C45.0908 38.321 38.3211 45.0907 30.0001 45.0907Z" fill="#D8E4B5"/>
<path d="M47.8486 7.51511C45.292 7.51511 43.212 9.59507 43.212 12.1515C43.212 14.7081 45.292 16.788 47.8486 16.788C50.4051 16.788 52.485 14.7081 52.485 12.1515C52.485 9.59495 50.4051 7.51511 47.8486 7.51511ZM47.8486 15.0302C46.2613 15.0302 44.9698 13.7388 44.9698 12.1515C44.9698 10.5642 46.2613 9.27292 47.8486 9.27292C49.4359 9.27292 50.7272 10.5643 50.7272 12.1515C50.7272 13.7387 49.4359 15.0302 47.8486 15.0302Z" fill="#D8E4B5"/>
<path d="M22.6504 22.6505C26.2481 19.0528 31.8679 18.5841 36.0131 21.5359C36.4083 21.8174 36.9572 21.7253 37.2388 21.3298C37.5205 20.9344 37.4281 20.3856 37.0327 20.104C34.7192 18.4566 31.8796 17.6711 29.0377 17.892C26.1606 18.1156 23.4508 19.3641 21.4074 21.4076C19.364 23.451 18.1155 26.1608 17.8918 29.0378C17.6709 31.8799 18.4565 34.7193 20.1038 37.0328C20.2753 37.2736 20.5457 37.4019 20.8205 37.4019C20.9969 37.4019 21.175 37.349 21.3296 37.2389C21.725 36.9573 21.8173 36.4085 21.5357 36.0131C18.584 31.8679 19.0528 26.2481 22.6504 22.6505Z" fill="#D8E4B5"/>
<path d="M38.6701 22.7611C38.2747 23.0427 38.1824 23.5915 38.464 23.9869C41.4158 28.132 40.9471 33.7519 37.3494 37.3495C33.7517 40.9471 28.132 41.4159 23.9867 38.4641C23.5912 38.1826 23.0426 38.2747 22.761 38.6702C22.4793 39.0656 22.5717 39.6144 22.9671 39.896C25.0247 41.3612 27.498 42.1446 30.0197 42.1446C30.3331 42.1446 30.6478 42.1324 30.9621 42.108C33.8392 41.8843 36.549 40.6359 38.5923 38.5924C40.6357 36.549 41.8842 33.8392 42.1079 30.9621C42.3288 28.1199 41.5433 25.2806 39.8959 22.9671C39.6143 22.5718 39.0656 22.4795 38.6701 22.7611Z" fill="#D8E4B5"/>
</svg>
